<?xml version="1.0" standalone="no"?>
<!DOCTYPE svg PUBLIC "-//W3C//DTD SVG 20010904//EN"
 "http://www.w3.org/TR/2001/REC-SVG-20010904/DTD/svg10.dtd">
<svg version="1.0" xmlns="http://www.w3.org/2000/svg"
 width="226.000000pt" height="300.000000pt" viewBox="0 0 226.000000 300.000000"
 preserveAspectRatio="xMidYMid meet">
<metadata>
Created by potrace 1.10, written by Peter Selinger 2001-2011
</metadata>
<g transform="translate(0.000000,300.000000) scale(0.050000,-0.050000)"
fill="#000000" stroke="none">
<path d="M2111 5978 c-347 -51 -831 -404 -831 -607 0 -18 -13 -37 -29 -43 -16
-7 -40 -44 -53 -85 -13 -40 -32 -84 -42 -96 -10 -13 -13 -55 -6 -92 7 -38 3
-106 -9 -151 -24 -89 2 -246 49 -304 14 -16 31 -62 38 -101 30 -169 293 -483
477 -571 92 -44 100 -36 108 107 6 106 5 110 -14 45 -11 -38 -25 -82 -30 -97
-10 -29 -76 27 -291 242 -128 128 -190 261 -217 465 -9 66 -17 105 -18 86 -2
-18 -13 -40 -26 -48 -31 -19 -9 428 23 460 17 16 21 -28 16 -172 -3 -107 2
-187 11 -177 9 9 20 94 24 187 8 168 49 283 159 440 48 69 233 254 254 254 20
0 12 -333 -15 -670 -6 -77 -3 -106 8 -80 19 43 63 536 63 702 l0 100 95 27
c103 30 101 29 145 46 101 39 234 75 277 75 88 0 560 -198 606 -254 14 -17 46
-38 71 -48 36 -13 46 -33 47 -93 0 -41 1 -219 1 -395 0 -230 6 -303 19 -260
19 59 39 338 39 546 0 61 8 101 19 95 29 -18 122 -233 110 -253 -6 -10 -1 -18
11 -18 12 0 17 -8 11 -19 -6 -10 -3 -24 9 -31 11 -7 20 -30 20 -52 0 -24 -9
-35 -21 -27 -12 7 -17 26 -11 41 6 16 -2 28 -19 28 -16 0 -29 11 -30 25 0 16
-6 15 -18 -5 -11 -19 -7 -72 11 -140 15 -60 28 -130 28 -155 0 -26 23 -68 50
-93 101 -94 19 -440 -146 -617 -154 -164 -382 -283 -385 -200 -1 24 -8 20 -21
-15 -11 -27 -48 -75 -81 -106 -74 -67 -67 -81 24 -51 329 106 515 276 708 647
99 190 149 444 94 478 -13 8 -23 48 -23 89 0 41 -8 84 -18 94 -9 10 -32 65
-50 121 -159 489 -688 803 -1221 726z m1289 -1147 c0 -49 -9 -94 -20 -101 -12
-8 -20 26 -20 89 0 55 9 101 20 101 11 0 20 -40 20 -89z"/>
<path d="M2080 5462 c0 -8 -29 -12 -65 -9 -62 6 -61 5 10 -13 41 -11 131 -49
200 -85 69 -35 131 -68 138 -71 8 -3 9 11 4 32 -15 56 -287 195 -287 146z"/>
<path d="M2323 5172 c-48 -101 -73 -192 -54 -192 7 0 22 26 34 59 12 36 30 55
47 48 38 -14 55 26 30 73 -14 27 -15 40 -1 40 12 0 21 14 21 30 0 57 -36 30
-77 -58z"/>
<path d="M2900 5110 c-13 -16 -32 -25 -42 -19 -10 6 -12 -3 -6 -20 7 -17 2
-31 -11 -31 -15 0 -11 -21 12 -59 40 -68 63 -67 26 1 -21 39 -18 49 28 83 52
38 70 75 35 75 -9 0 -28 -13 -42 -30z"/>
<path d="M1513 4823 c-23 -25 -37 -91 -46 -215 l-12 -180 67 -57 c308 -261
1065 -338 1464 -151 104 49 122 82 155 288 35 216 32 218 -295 224 -318 5
-1043 71 -1126 101 -80 30 -175 25 -207 -10z m540 -218 c29 -19 69 -162 49
-174 -121 -74 -265 -28 -259 84 2 47 4 49 11 10 5 -25 21 -45 36 -45 16 0 22
15 17 37 -18 69 82 129 146 88z m957 -58 c-64 -46 -86 -31 -58 41 10 25 20 27
54 9 40 -22 40 -23 4 -50z m-311 -43 c6 -26 20 -45 31 -44 33 4 34 -53 1 -86
-22 -22 -54 -28 -106 -21 -60 8 -69 6 -45 -13 27 -20 27 -22 0 -15 -16 5 -31
19 -32 32 -2 13 -5 25 -7 28 -17 22 -15 129 3 150 37 44 143 23 155 -31z
m-410 -26 c-10 -15 0 -18 28 -9 48 15 52 6 21 -52 -12 -23 -33 -35 -50 -29
-16 6 -28 -2 -28 -19 0 -25 8 -26 42 -8 27 15 49 16 62 3 29 -29 -78 -49 -127
-22 -25 13 -34 28 -21 35 11 8 27 38 35 68 7 30 22 55 32 55 11 0 13 -10 6
-22z"/>
<path d="M4182 4701 c-22 -13 -15 -19 28 -24 75 -9 87 -52 19 -69 -40 -10 -59
-5 -73 19 -29 53 -83 42 -68 -15 12 -48 -113 -174 -143 -143 -25 24 -23 81 4
111 30 34 8 120 -30 120 -74 0 -141 -199 -101 -296 19 -45 16 -68 -18 -133
-96 -189 -26 -312 201 -351 197 -34 309 -22 310 35 0 24 11 55 25 69 13 13 24
35 24 49 0 45 -53 7 -82 -59 -48 -110 -162 -73 -273 89 -86 126 -95 166 -45
212 23 22 36 52 29 69 -36 96 301 230 350 138 23 -43 17 -50 -63 -69 -42 -10
-56 -5 -66 27 -21 65 -76 51 -61 -15 10 -45 1 -62 -47 -94 -32 -22 -53 -50
-48 -65 8 -20 29 -14 81 26 l70 54 37 -48 c20 -26 37 -62 38 -80 1 -106 197
-151 217 -50 7 38 7 38 -92 -2 -14 -6 -25 4 -25 24 0 18 -17 38 -39 44 -21 5
-38 25 -37 43 1 18 -5 49 -13 68 -25 57 115 48 154 -10 17 -25 37 -39 45 -31
27 26 -12 122 -76 186 -35 35 -73 90 -84 120 -21 60 -95 85 -148 51z m-288
-127 c-36 -55 -78 -69 -61 -21 20 57 50 88 70 75 12 -7 8 -29 -9 -54z m76
-480 c52 -95 20 -141 -66 -93 -60 34 -80 105 -43 151 35 41 63 27 109 -58z"/>
<path d="M3600 3970 c-44 -93 -87 -199 -94 -235 -16 -82 -38 -97 -130 -82 -59
9 -106 -3 -234 -63 -180 -85 -231 -84 -323 8 -111 111 -343 179 -548 162 -181
-16 -218 -12 -271 29 -137 107 -480 41 -559 -108 -45 -83 157 -63 254 25 25
23 45 32 45 21 0 -11 33 -58 72 -104 237 -277 837 -320 802 -58 -6 41 -3 75 6
75 32 0 100 -106 100 -155 0 -48 4 -49 83 -37 l83 13 -13 -88 c-19 -144 -68
-223 -166 -273 -49 -24 -103 -67 -122 -97 -141 -226 -451 -265 -798 -100 -76
35 -155 72 -177 82 -22 10 -1 -24 50 -76 120 -125 191 -152 429 -162 307 -14
331 -19 331 -80 0 -69 49 -31 80 62 12 37 62 103 110 147 49 45 105 113 123
152 32 68 40 72 130 72 52 0 100 9 108 21 8 14 70 16 178 7 110 -9 170 -6 179
8 15 25 -93 51 -218 53 l-79 1 -16 108 c-16 110 2 162 55 162 14 0 72 31 128
68 98 67 139 71 101 11 -28 -44 -21 -144 12 -188 16 -21 29 -68 29 -103 0 -86
55 -104 155 -51 41 22 108 50 148 63 86 26 128 89 46 68 -33 -8 -49 -4 -49 14
0 14 -29 -2 -65 -36 -130 -124 -288 81 -196 253 30 55 59 45 114 -36 28 -40
47 -54 54 -38 8 20 10 20 11 0 2 -29 82 -114 82 -86 0 10 41 25 91 32 104 16
259 122 419 287 l100 104 -90 -14 c-147 -23 -208 -56 -335 -182 -152 -152
-177 -161 -246 -95 -71 68 -72 71 -10 164 73 112 166 445 124 445 -7 0 -48
-76 -93 -170z m-1635 -230 c88 -52 286 -73 383 -41 92 31 118 11 55 -41 -113
-91 -523 -17 -523 95 0 35 5 34 85 -13z"/>
<path d="M1362 3588 c-26 -13 -53 -34 -60 -45 -17 -27 -172 -32 -356 -13 -119
13 -153 10 -194 -17 -28 -18 -69 -33 -91 -33 -109 0 -241 -221 -161 -270 12
-7 20 12 20 46 0 64 45 116 80 94 12 -7 34 -3 49 9 15 12 87 23 161 25 92 1
137 10 144 29 6 15 28 27 50 27 31 0 37 -8 24 -35 -9 -19 -17 -84 -17 -145 -1
-84 -8 -110 -31 -110 -16 0 -46 -20 -67 -45 -65 -81 -103 -90 -183 -43 -39 24
-77 38 -84 31 -6 -7 -38 10 -70 37 -77 65 -113 46 -202 -107 -103 -174 -219
-442 -206 -474 18 -48 67 -33 81 26 18 72 74 192 97 207 9 7 18 20 18 30 0 10
10 41 21 68 11 28 31 86 45 130 29 94 88 101 197 24 35 -24 66 -45 70 -47 19
-10 6 -151 -22 -247 -17 -60 -36 -146 -41 -190 -31 -278 -126 -331 -286 -159
l-85 91 -38 -86 c-57 -130 -89 -261 -82 -336 9 -91 57 -105 58 -17 2 100 70
288 102 283 117 -16 280 -106 191 -106 -46 0 -63 -18 -116 -125 -35 -69 -70
-128 -79 -131 -9 -4 -12 -20 -6 -35 15 -39 85 -37 130 4 35 32 37 30 37 -30 0
-43 -10 -63 -30 -63 -40 0 -38 -32 2 -48 88 -34 219 36 173 92 -28 34 2 76 56
76 48 0 60 -21 37 -64 -12 -22 -17 -44 -11 -50 22 -22 68 130 62 205 -5 62
-22 93 -78 141 -82 72 -85 80 -32 94 90 23 154 224 179 562 l12 161 80 14 c44
7 106 24 138 36 42 16 76 16 125 0 75 -25 185 1 228 52 45 55 55 29 26 -66
-52 -168 -2 -351 62 -228 17 35 31 67 30 73 -1 6 4 37 11 69 7 32 3 77 -9 99
-19 35 -17 39 12 28 55 -21 25 260 -40 386 -75 143 -76 144 -131 116z m-8
-185 c120 -179 77 -276 -120 -268 -143 6 -194 46 -194 153 0 173 221 253 314
115z m-744 -1223 c42 -16 50 -29 39 -62 -11 -36 -7 -40 29 -29 35 12 42 5 42
-38 0 -28 -4 -51 -8 -51 -5 0 -23 -5 -40 -12 -21 -8 -32 -1 -32 18 0 96 -102
117 -138 29 -21 -51 -29 -57 -36 -29 -5 20 2 49 15 65 14 17 19 35 13 42 -16
16 22 87 45 87 10 0 42 -9 71 -20z"/>
<path d="M1361 2611 c-60 -61 -91 -112 -99 -163 -14 -84 -51 -111 -68 -49 -13
50 -51 53 -69 6 -23 -62 -248 -450 -338 -585 -87 -129 -105 -187 -67 -210 11
-7 20 -1 20 13 0 14 26 -3 59 -39 109 -119 136 -96 324 288 78 159 149 288
158 288 29 0 42 -77 20 -118 -63 -117 -5 -256 98 -235 57 11 63 8 52 -22 -8
-19 -44 -123 -82 -230 -97 -279 -94 -274 -184 -253 -97 22 -320 23 -333 1 -24
-38 87 -69 207 -58 135 12 137 11 82 -79 -48 -78 -86 -98 -199 -104 -49 -2
-104 -13 -124 -23 -101 -54 -230 280 -150 386 47 63 92 30 92 -67 0 -21 9 -38
20 -38 11 0 20 26 20 57 0 67 -39 188 -57 178 -7 -4 -46 -22 -87 -41 -67 -30
-120 -46 -336 -97 -198 -46 -381 -351 -292 -486 17 -27 32 -67 32 -89 0 -21
56 -97 125 -168 156 -162 279 -205 450 -155 94 27 90 -51 -14 -289 -10 -22
-23 -56 -29 -76 -20 -61 -143 -99 -273 -84 -132 15 -128 9 -150 250 -8 83 -36
213 -63 290 l-48 140 9 -250 c18 -441 51 -494 319 -498 236 -3 295 66 355 418
19 113 38 165 80 210 30 33 70 110 89 170 67 208 77 220 196 220 59 1 140 17
189 39 53 25 108 35 150 28 78 -13 266 53 345 121 42 37 72 45 127 39 103 -13
246 63 266 141 8 31 42 81 74 110 38 33 67 86 81 144 12 51 27 110 33 130 14
43 12 41 -99 -98 -32 -40 -65 -68 -74 -63 -8 5 -12 -12 -7 -38 11 -58 -37 -94
-178 -133 -110 -30 -94 -42 -195 144 -29 52 -65 110 -80 129 -26 31 -23 32 29
19 69 -17 181 17 265 79 50 37 78 44 146 35 101 -14 317 175 295 257 -15 57 7
110 29 74 11 -17 18 12 18 75 0 100 -53 208 -101 208 -11 0 -19 -87 -19 -192
l0 -193 -78 -77 c-64 -64 -91 -78 -155 -77 l-77 0 75 61 c64 53 140 149 204
258 10 17 -68 -58 -172 -165 -246 -252 -401 -316 -520 -215 l-47 41 52 -12
c120 -27 73 146 -69 255 -111 84 -313 280 -313 303 0 10 21 38 47 62 26 24 52
57 57 72 8 21 62 -6 208 -105 372 -252 529 -259 669 -32 100 163 99 164 -206
148 -293 -15 -446 5 -535 68 -76 54 -79 53 -179 -49z m-121 -406 c0 -23 -246
-512 -308 -610 -28 -46 -66 -44 -91 4 -37 69 -23 124 66 248 102 145 184 313
204 419 l14 77 57 -55 c32 -31 58 -68 58 -83z m266 -65 c156 -145 165 -211 34
-257 -127 -44 -237 51 -180 156 19 36 14 60 -29 142 -28 54 -51 114 -51 132 0
36 3 34 226 -173z m129 -547 c-5 -133 0 -154 53 -230 32 -46 54 -87 50 -92
-17 -16 -178 -24 -178 -9 0 9 -12 12 -26 7 -47 -18 -127 86 -89 116 43 34 115
167 115 215 0 49 41 140 63 140 10 0 15 -66 12 -147z m120 1 c11 -26 58 -90
104 -143 90 -104 91 -108 13 -122 -73 -14 -130 22 -164 102 -57 138 -13 293
47 163z m-1157 -271 c-49 -140 79 -343 216 -343 96 0 101 -5 51 -57 -92 -98
-114 -138 -117 -219 -5 -111 0 -108 -167 -106 -169 1 -205 19 -389 189 -176
164 -178 195 -24 346 95 92 421 281 447 258 3 -2 -5 -33 -17 -68z m1522 58 c0
-24 -79 -69 -94 -53 -6 5 -6 24 1 41 13 33 93 43 93 12z"/>
<path d="M638 866 c-58 -63 -87 -126 -57 -126 10 0 19 10 19 21 0 12 7 17 15
12 9 -5 32 2 51 17 26 18 30 30 13 41 -18 10 -17 18 1 29 14 9 21 26 17 39 -4
13 -29 0 -59 -33z"/>
</g>
</svg>
