<svg id="Layer_1" data-name="Layer 1" xmlns="http://www.w3.org/2000/svg" viewBox="0 0 114.98 122.88"><defs><style>.cls-1{fill:#403c47;}.cls-2{fill:#f4bb2c;}</style></defs><title>idea-bulb</title><path class="cls-1" d="M68.5,116.34a13.28,13.28,0,0,1-4.82,4.83,12.55,12.55,0,0,1-5.53,1.69,11.49,11.49,0,0,1-5.69-1.11,11.62,11.62,0,0,1-3.37-2.51l19.41-2.9Zm2.69-20.51-.63,3-.16,2.1-25.32,3.77a30.48,30.48,0,0,0-.71-4.83l26.82-4Zm-.84,9.65,0,1.27,0,.44a17.39,17.39,0,0,1,0,2.5l-.38,1.83L46.53,115l-.41-.94-.92-3.76,0-1.09,25.17-3.75Z"/><path class="cls-1" d="M56.76,3.84a3.93,3.93,0,0,1,4-3.83h0L61,0a3.91,3.91,0,0,1,3.6,4h0a1.27,1.27,0,0,1,0,.2l-.21,8.37h0a2.45,2.45,0,0,1,0,.27,3.91,3.91,0,0,1-3.95,3.6h0l-.27,0a3.91,3.91,0,0,1-3.6-3.95h0a1.27,1.27,0,0,1,0-.2l.2-8.41Z"/><path class="cls-1" d="M93.8,15.38a3.9,3.9,0,0,1,5.42-1.07h0a3.87,3.87,0,0,1,1.66,2.49,4,4,0,0,1-.59,2.94l-4.76,7.13A3.94,3.94,0,0,1,93,28.54a3.91,3.91,0,0,1-4.61-3.08A4,4,0,0,1,89,22.52l4.78-7.14Z"/><path class="cls-1" d="M110.69,49.51h.13A3.92,3.92,0,0,1,115,53v0a.49.49,0,0,1,0,.13,3.92,3.92,0,0,1-3.51,4.14l-8.53.9a3.92,3.92,0,0,1-.8-7.8c2.85-.31,5.71-.64,8.56-.91Z"/><path class="cls-1" d="M4,61.66a3.93,3.93,0,0,1-4-3.8,3.91,3.91,0,0,1,3.8-4l8.57-.29a3.91,3.91,0,0,1,4,3.8v.06h0v.14a3.91,3.91,0,0,1-3.8,3.84h-.15L4,61.66Z"/><path class="cls-1" d="M14.26,18.5a3.92,3.92,0,0,1,5.33-5.75l6.28,5.85a4,4,0,0,1,1.25,2.73,3.9,3.9,0,0,1-1,2.81,4,4,0,0,1-2.73,1.25,3.9,3.9,0,0,1-2.81-1L14.26,18.5Z"/><path class="cls-2" d="M30.62,75.16a36.3,36.3,0,0,1-2.47-4.44,35.56,35.56,0,0,1-3.55-15.4c.12-12.94,7.45-24.93,19.63-29.88a33.76,33.76,0,0,1,15.86-2.27A36.61,36.61,0,0,1,75.23,28,31.27,31.27,0,0,1,88.45,43,33.22,33.22,0,0,1,91,54.65a33.6,33.6,0,0,1-2.57,13.67c-3,7.43-10,15.38-14.6,22.69-1-.19-5.66.71-7,.9l9.43-32.79a1.76,1.76,0,1,0-3.38-1L63,92.49l-9.36,1.39L43.75,62.45a1.75,1.75,0,0,0,1.85-.83l7-11.93,3.57,8.19a1.75,1.75,0,0,0,2.3.91,1.78,1.78,0,0,0,.93-1h0l3.16-8,3.7,9.76a1.75,1.75,0,0,0,3.28-1.24l-5.27-13.9A1.76,1.76,0,0,0,61,44.35L57.7,52.62l-3.26-7.48a1.71,1.71,0,0,0-.72-.81,1.74,1.74,0,0,0-2.39.62l-8.52,14.5-.61-1.93a1.74,1.74,0,1,0-3.33,1L50.13,94.4l-6.78,1A47.39,47.39,0,0,0,40,87.74c-2.71-4.89-6.36-7.94-9.37-12.58Z"/></svg>