<?xml version="1.0" standalone="no"?>
<!DOCTYPE svg PUBLIC "-//W3C//DTD SVG 20010904//EN"
 "http://www.w3.org/TR/2001/REC-SVG-20010904/DTD/svg10.dtd">
<svg version="1.0" xmlns="http://www.w3.org/2000/svg"
 width="258.000000pt" height="343.000000pt" viewBox="0 0 258.000000 343.000000"
 preserveAspectRatio="xMidYMid meet">
<metadata>
Created by potrace 1.16, written by Peter Selinger 2001-2019
</metadata>
<g transform="translate(0.000000,343.000000) scale(0.100000,-0.100000)"
fill="#000000" stroke="none">
<path d="M866 2758 c-14 -11 -20 -35 -27 -105 -11 -110 -5 -131 54 -172 204
-140 598 -174 806 -69 61 30 67 37 79 78 21 76 27 183 10 197 -9 8 -71 14
-168 17 -169 6 -457 29 -566 47 -129 20 -168 21 -188 7z"/>
<path d="M982 2191 c-20 -12 7 -69 60 -127 75 -82 207 -130 340 -122 87 5 118
31 126 106 l4 49 -47 28 c-46 27 -51 27 -129 20 -122 -12 -164 -10 -187 11
-39 35 -135 56 -167 35z"/>
<path d="M768 2039 c-24 -14 -23 -29 7 -80 14 -24 30 -70 36 -102 10 -48 17
-60 41 -73 17 -9 31 -14 33 -12 2 2 1 38 -2 80 -4 58 -13 89 -37 134 -32 60
-48 71 -78 53z"/>
<path d="M1624 1995 c-3 -14 -1 -38 6 -54 9 -22 8 -40 -3 -85 l-15 -56 30 25
c22 19 34 23 47 15 27 -14 31 -4 31 72 0 38 5 78 11 89 9 19 9 19 -10 10 -13
-8 -28 -8 -46 -1 -38 15 -44 13 -51 -15z"/>
<path d="M822 1528 c-7 -7 -8 -17 -1 -29 12 -23 197 -155 244 -175 50 -21 133
-18 172 6 36 21 78 80 88 123 l7 27 -183 0 c-188 1 -239 9 -278 44 -21 19 -33
20 -49 4z"/>
<path d="M309 1291 c15 -10 8 -15 -31 -25 -21 -5 -36 -23 -67 -83 -22 -42 -38
-80 -35 -85 8 -13 46 -9 65 7 15 15 17 14 23 -10 5 -21 11 -24 32 -19 18 5 29
1 39 -12 18 -23 20 -11 3 16 -10 15 -9 22 5 38 25 27 21 57 -9 71 -15 6 -27
10 -28 9 -26 -43 -39 -59 -43 -54 -3 3 2 17 11 31 9 14 14 30 11 35 -4 6 -3
20 0 31 6 19 12 21 53 15 l45 -6 -27 25 c-15 14 -35 25 -44 25 -13 0 -14 -2
-3 -9z"/>
<path d="M886 1060 l-48 -16 -29 -88 c-36 -108 -36 -116 -4 -116 35 0 105 37
105 55 0 8 4 15 9 15 4 0 11 -21 14 -46 3 -28 13 -54 28 -70 29 -31 33 -26 14
19 -23 55 -19 92 11 114 23 17 25 22 15 41 -8 15 -9 28 -2 41 8 15 4 22 -28
43 -36 24 -38 24 -85 8z"/>
<path d="M50 481 c0 -7 20 -41 45 -76 59 -81 112 -110 205 -110 40 1 76 7 94
16 28 16 27 16 -57 22 -99 7 -130 20 -201 86 -72 66 -86 76 -86 62z"/>
</g>
</svg>
